<svg version="1.0" xmlns="http://www.w3.org/2000/svg" viewBox="0 0 3341 3934"
 preserveAspectRatio="xMidYMid meet">

<g transform="translate(0.000000,3934.000000) scale(0.100000,-0.100000)"
fill="currentColor" stroke="none">
<path d="M16180 39324 c-699 -31 -1050 -59 -1570 -125 -3320 -417 -6436 -1833
-8959 -4073 -683 -606 -1358 -1319 -1957 -2066 -1977 -2468 -3221 -5453 -3578
-8585 -84 -732 -111 -1297 -103 -2109 5 -545 10 -675 43 -1106 183 -2458 921
-4876 2142 -7020 673 -1181 1521 -2323 2438 -3280 311 -325 10167 -10220
10245 -10286 317 -266 662 -453 1033 -560 285 -82 489 -109 811 -108 192 1
268 5 380 22 632 97 1138 354 1612 818 112 110 6273 6301 9458 9504 737 741
962 983 1370 1475 1019 1226 1878 2632 2506 4096 1071 2500 1516 5215 1304
7954 -130 1680 -522 3354 -1155 4935 -580 1452 -1363 2813 -2339 4070 -632
813 -1409 1640 -2166 2305 -2633 2310 -5878 3723 -9335 4064 -231 23 -525 46
-800 62 -177 10 -1224 20 -1380 13z m1410 -3008 c1890 -135 3576 -591 5220
-1412 1349 -674 2506 -1512 3605 -2609 2080 -2077 3440 -4783 3869 -7700 29
-197 66 -488 66 -522 l0 -23 -2332 0 c-1425 0 -2407 4 -2523 10 -805 43 -1508
171 -2195 400 -717 239 -1299 530 -2440 1217 -228 138 -505 302 -615 365
-1073 616 -1873 891 -2895 995 -222 23 -1012 26 -1235 5 -642 -60 -1210 -195
-1782 -423 -495 -197 -958 -443 -1843 -979 -899 -545 -1398 -806 -1983 -1036
-447 -177 -865 -300 -1341 -393 -314 -63 -582 -98 -1066 -143 -152 -14 -5040
-24 -5040 -10 0 5 11 101 25 213 352 2845 1573 5491 3517 7614 341 372 940
944 1333 1272 1210 1008 2542 1783 3995 2326 1277 477 2630 761 3985 837 105
6 217 12 250 14 174 10 1217 -3 1425 -18z m-540 -11351 c255 -38 487 -111 720
-226 718 -352 1208 -1022 1335 -1824 25 -156 31 -463 11 -629 -67 -578 -318
-1087 -734 -1488 -595 -573 -1430 -802 -2232 -613 -250 59 -551 188 -760 325
-789 517 -1217 1454 -1085 2375 115 810 608 1494 1330 1850 285 140 534 212
855 245 119 12 435 4 560 -15z m-9204 -3915 c1382 -79 2690 -522 3862 -1307
864 -578 1641 -1353 2218 -2213 671 -999 1093 -2107 1238 -3250 51 -398 49
-301 53 -2952 l4 -2478 -25 0 c-14 0 -114 11 -223 25 -3250 413 -6245 1985
-8450 4436 -1843 2048 -3024 4579 -3407 7304 -22 157 -56 422 -56 439 0 11
4597 7 4786 -4z m22504 -10 c0 -11 -14 -127 -30 -258 -332 -2595 -1403 -5055
-3076 -7062 -1433 -1719 -3231 -3049 -5284 -3907 -994 -416 -2105 -728 -3160
-887 -203 -31 -545 -76 -577 -76 l-23 0 0 2443 c0 1552 4 2495 10 2587 124
1766 903 3456 2209 4793 1384 1416 3212 2265 5116 2376 77 4 1192 9 2478 10
2336 1 2337 1 2337 -19z"/>
</g>
</svg>
